<?xml version="1.0" encoding="UTF-8" standalone="no"?><!DOCTYPE svg PUBLIC "-//W3C//DTD SVG 1.1//EN" "http://www.w3.org/Graphics/SVG/1.1/DTD/svg11.dtd"><svg width="100%" height="100%" viewBox="0 0 99 102" version="1.1" xmlns="http://www.w3.org/2000/svg" xmlns:xlink="http://www.w3.org/1999/xlink" xml:space="preserve" xmlns:serif="http://www.serif.com/" style="fill-rule:evenodd;clip-rule:evenodd;stroke-miterlimit:10;"><clipPath id="_clip1"><rect id="Alan-M.-5-Logo-final4" serif:id="Alan M. 5-Logo-final4" x="0" y="0" width="98.9" height="101.5"/></clipPath><g clip-path="url(#_clip1)"><g id="Page-3" serif:id="Page 3"><rect x="0" y="0" width="98.875" height="101.466" style="fill:none;"/><g><g id="Layer-1" serif:id="Layer 1"><g id="Chequers"><rect x="0.137" y="0.862" width="12.482" height="12.627"/><rect x="24.668" y="0.862" width="12.482" height="12.627"/><rect x="49.198" y="0.862" width="12.482" height="12.627"/><rect x="73.729" y="0.862" width="12.482" height="12.627"/><rect x="12.359" y="13.579" width="12.482" height="12.848"/><rect x="61.68" y="13.489" width="12.482" height="12.627"/><rect x="85.951" y="13.579" width="12.482" height="12.627"/><rect x="0.137" y="26.379" width="12.482" height="12.627"/><rect x="24.668" y="26.379" width="12.482" height="12.627"/><rect x="74.08" y="25.966" width="11.902" height="12.674"/><rect x="85.69" y="38.48" width="12.482" height="12.627"/><rect x="0.657" y="50.054" width="12.482" height="12.627"/><rect x="85.951" y="62.681" width="12.482" height="12.627"/><rect x="0.397" y="75.045" width="12.482" height="12.627"/><rect x="12.619" y="87.672" width="12.482" height="12.627"/><rect x="37.404" y="87.409" width="12.138" height="12.627"/><rect x="61.68" y="87.672" width="12.482" height="12.627"/><rect x="86.211" y="87.672" width="12.482" height="12.627"/><rect x="36.89" y="13.752" width="12.482" height="12.627"/><rect x="49.198" y="26.379" width="12.482" height="12.627"/><rect x="12.099" y="38.756" width="12.482" height="11.407"/><rect x="36.63" y="38.48" width="12.482" height="12.627"/><rect x="61.16" y="38.48" width="12.482" height="12.627"/><rect x="25.188" y="50.054" width="12.482" height="12.627"/><rect x="49.035" y="50.854" width="12.482" height="11.827"/><rect x="74.249" y="50.969" width="11.676" height="11.712"/><rect x="12.359" y="62.681" width="12.482" height="12.627"/><rect x="36.89" y="62.681" width="12.482" height="12.627"/><rect x="61.42" y="62.681" width="12.482" height="12.627"/><rect x="73.989" y="75.045" width="12.482" height="12.627"/><rect x="24.928" y="75.045" width="12.482" height="12.627"/><rect x="49.458" y="75.045" width="12.482" height="12.627"/></g><path id="Border" d="M1.305,100.226l96.083,0l0,-98.897l-96.083,0l0,98.897Zm97.388,1.33l-98.693,0l0,-101.556l98.693,0l0,101.556Z" style="fill:#db9b1d;fill-rule:nonzero;"/><g id="Compass"><path d="M54.417,58.345l-5.132,5.191l-21.063,-21.308l-2.081,3.683c0,0 -5.461,-3.683 -10.141,-0.526l-5.201,-2.104l38.486,38.933l14.728,-14.899l4.648,-4.59l19.111,-19.181l-5.201,2.104c-4.681,-3.157 -10.142,0.526 -10.142,0.526l-2.08,-3.683c0,0 -15.713,15.633 -15.932,15.854Z" style="fill:#db9b1d;fill-rule:nonzero;stroke:#000;stroke-width:1.17px;"/><path d="M48.611,30.387c-0.548,0 -1.063,-0.03 -1.577,-0.09l-0.034,0.03c0.514,0.06 1.063,0.09 1.611,0.09c0.823,0 1.611,-0.06 2.366,-0.18l-0.035,-0.031c-0.754,0.121 -1.542,0.181 -2.331,0.181" style="fill:#fff;fill-rule:nonzero;"/><path d="M48.611,30.387c-0.548,0 -1.063,-0.03 -1.577,-0.09l-0.034,0.03c0.514,0.06 1.063,0.09 1.611,0.09c0.823,0 1.611,-0.06 2.366,-0.18l-0.035,-0.031c-0.754,0.121 -1.542,0.181 -2.331,0.181Z" style="fill:none;stroke:#a3a3a3;stroke-width:1.17px;"/><path d="M36.956,25.019l-4.766,11.792l-16.626,41.046l2.4,0l25.094,-41.046l3.942,-6.454c-4.182,-0.422 -7.782,-2.442 -10.044,-5.338Z" style="fill:#db9b1d;fill-rule:nonzero;stroke:#000;stroke-width:1.17px;"/><path d="M65.855,36.811l-5.074,-12.546c-2.057,3.107 -5.622,5.338 -9.804,5.972l4.011,6.574l25.093,41.046l2.4,0l-16.626,-41.046Z" style="fill:#db9b1d;fill-rule:nonzero;stroke:#000;stroke-width:1.17px;"/><path d="M12.89,84.462l1.029,0l4.01,-6.575l-2.399,0l-2.64,6.575Z" style="fill:#db9b1d;fill-rule:nonzero;stroke:#000;stroke-width:1.17px;"/><path d="M80.081,77.887l4.011,6.575l1.063,-0.001l-2.674,-6.574l-2.4,0Z" style="fill:#db9b1d;fill-rule:nonzero;stroke:#000;stroke-width:1.17px;"/><path d="M63.13,16.843c0,-7.913 -6.35,-14.337 -14.172,-14.337c-7.822,0 -14.172,6.424 -14.172,14.337c0,7.913 6.35,14.337 14.172,14.337c7.822,0 14.172,-6.424 14.172,-14.337Z" style="fill:#db9b1d;stroke:#000;stroke-width:1.17px;"/><path d="M48.958,23.551c-3.656,0 -6.631,-3.009 -6.631,-6.708c0,-3.699 2.975,-6.708 6.631,-6.708c3.656,0 6.631,3.009 6.631,6.708c0,3.699 -2.975,6.708 -6.631,6.708Z" style="fill:#db9b1d;fill-rule:nonzero;stroke:#000;stroke-width:0.79px;"/></g><g><g><g transform="matrix(0.703016,0.711174,-0.703062,0.711222,50.3543,-5.88282)"><text x="31.885px" y="58.153px" style="font-family:'ModernAntiqua-Regular', 'Modern Antiqua', sans-serif;font-weight:500;font-size:6.186px;">On the</text></g><g transform="matrix(0.703016,-0.711174,0.703062,0.711222,-35.801,57.8189)"><text x="51.748px" y="72.781px" style="font-family:'ModernAntiqua-Regular', 'Modern Antiqua', sans-serif;font-weight:500;font-size:6.186px;">Square</text></g></g><g><path d="M79.017,90.086l4.879,1.452c-2.51,1.925 -2.481,4.815 -1.23,8.172l-8.939,-2.199c0.819,-0.627 1.973,-0.938 3.526,-0.871l1.764,-6.554" style="fill:#db9b1d;stroke:#000;stroke-width:0.13px;stroke-linecap:round;stroke-linejoin:round;stroke-miterlimit:1.5;"/><path d="M19.553,90.086l-4.879,1.452c2.509,1.925 2.481,4.815 1.23,8.172l8.938,-2.199c-0.819,-0.627 -1.973,-0.938 -3.526,-0.871l-1.763,-6.554" style="fill:#db9b1d;stroke:#000;stroke-width:0.13px;stroke-linecap:round;stroke-linejoin:round;stroke-miterlimit:1.5;"/><path d="M49.043,94.995c-9.936,0.002 -19.675,0.314 -28.735,1.701l-3.412,-9.831c10.718,-2.186 21.433,-2.558 32.147,-2.355c10.715,-0.203 21.43,0.196 32.147,2.382l-3.412,9.831c-9.06,-1.387 -18.799,-1.699 -28.735,-1.701l0,-0.027Z" style="fill:#db9b1d;stroke:#000;stroke-width:0.13px;stroke-linecap:round;stroke-linejoin:round;stroke-miterlimit:1.5;"/><path d="M24.843,97.511l-0.969,-1.308l-3.41,0.52l4.379,0.788Z" style="fill:#db9b1d;stroke:#000;stroke-width:0.13px;stroke-linecap:round;stroke-linejoin:round;stroke-miterlimit:1.5;"/><path d="M73.152,97.511l0.97,-1.308l3.41,0.52l-4.38,0.788Z" style="fill:#db9b1d;stroke:#000;stroke-width:0.13px;stroke-linecap:round;stroke-linejoin:round;stroke-miterlimit:1.5;"/></g></g></g><g><g transform="matrix(0.994946,-0.100413,0.0981436,0.995175,-8.95036,2.95571)"><text x="24.992px" y="92.484px" style="font-family:'ModernAntiqua-Regular', 'Modern Antiqua', sans-serif;font-weight:500;font-size:6.221px;stroke:#000;stroke-width:0.04px;stroke-linejoin:round;stroke-miterlimit:1.41421;">M</text></g><g transform="matrix(0.997819,-0.0660045,0.0645045,0.997919,-5.86498,2.19903)"><text x="30.417px" y="91.952px" style="font-family:'ModernAntiqua-Regular', 'Modern Antiqua', sans-serif;font-weight:500;font-size:6.222px;stroke:#000;stroke-width:0.04px;stroke-linejoin:round;stroke-miterlimit:1.41421;">a</text></g><g transform="matrix(0.998997,-0.0447762,0.0437563,0.999043,-3.97909,1.61063)"><text x="34.01px" y="91.717px" style="font-family:'ModernAntiqua-Regular', 'Modern Antiqua', sans-serif;font-weight:500;font-size:6.222px;stroke:#000;stroke-width:0.04px;stroke-linejoin:round;stroke-miterlimit:1.41421;">s</text></g><g transform="matrix(0.999663,-0.025956,0.025364,0.999678,-2.31038,0.990496)"><text x="37.026px" y="91.581px" style="font-family:'ModernAntiqua-Regular', 'Modern Antiqua', sans-serif;font-weight:500;font-size:6.222px;stroke:#000;stroke-width:0.04px;stroke-linejoin:round;stroke-miterlimit:1.41421;">o</text></g><g transform="matrix(0.999975,-0.0070102,0.00685022,0.999977,-0.625751,0.285023)"><text x="40.352px" y="91.492px" style="font-family:'ModernAntiqua-Regular', 'Modern Antiqua', sans-serif;font-weight:500;font-size:6.222px;stroke:#000;stroke-width:0.04px;stroke-linejoin:round;stroke-miterlimit:1.41421;">n</text></g><g transform="matrix(0.999984,0.0057112,-0.00558086,0.999984,0.511208,-0.251095)"><text x="44.215px" y="91.471px" style="font-family:'ModernAntiqua-Regular', 'Modern Antiqua', sans-serif;font-weight:500;font-size:6.222px;stroke:#000;stroke-width:0.04px;stroke-linejoin:round;stroke-miterlimit:1.41421;">i</text></g><g transform="matrix(0.999876,0.0157743,-0.0154144,0.999881,1.41585,-0.717756)"><text x="46.19px" y="91.479px" style="font-family:'ModernAntiqua-Regular', 'Modern Antiqua', sans-serif;font-weight:500;font-size:6.222px;stroke:#000;stroke-width:0.04px;stroke-linejoin:round;stroke-miterlimit:1.41421;">c</text></g><g transform="matrix(1,0.000508041,-0.000496446,1,0.0454183,-0.0260323)"><text x="51.263px" y="91.474px" style="font-family:'ModernAntiqua-Regular', 'Modern Antiqua', sans-serif;font-weight:500;font-size:6.222px;stroke:#000;stroke-width:0.04px;stroke-linejoin:round;stroke-miterlimit:1.41421;">R</text></g><g transform="matrix(0.999833,0.0182707,-0.0178539,0.999841,1.64251,-1.00084)"><text x="55.576px" y="91.478px" style="font-family:'ModernAntiqua-Regular', 'Modern Antiqua', sans-serif;font-weight:500;font-size:6.222px;stroke:#000;stroke-width:0.04px;stroke-linejoin:round;stroke-miterlimit:1.41421;">e</text></g><g transform="matrix(0.999263,0.0383742,-0.0374997,0.999297,3.47584,-2.19382)"><text x="58.846px" y="91.534px" style="font-family:'ModernAntiqua-Regular', 'Modern Antiqua', sans-serif;font-weight:500;font-size:6.222px;stroke:#000;stroke-width:0.04px;stroke-linejoin:round;stroke-miterlimit:1.41421;">g</text></g><g transform="matrix(0.998112,0.0614197,-0.0600231,0.998198,5.62011,-3.66952)"><text x="62.435px" y="91.669px" style="font-family:'ModernAntiqua-Regular', 'Modern Antiqua', sans-serif;font-weight:500;font-size:6.222px;stroke:#000;stroke-width:0.04px;stroke-linejoin:round;stroke-miterlimit:1.41421;">a</text></g><g transform="matrix(0.996764,0.0803891,-0.078566,0.996911,7.43367,-5.02452)"><text x="66.034px" y="91.897px" style="font-family:'ModernAntiqua-Regular', 'Modern Antiqua', sans-serif;font-weight:500;font-size:6.221px;stroke:#000;stroke-width:0.04px;stroke-linejoin:round;stroke-miterlimit:1.41421;">l</text></g><g transform="matrix(0.995462,0.0951644,-0.0930118,0.995667,8.87078,-6.07213)"><text x="67.998px" y="92.055px" style="font-family:'ModernAntiqua-Regular', 'Modern Antiqua', sans-serif;font-weight:500;font-size:6.221px;stroke:#000;stroke-width:0.04px;stroke-linejoin:round;stroke-miterlimit:1.41421;">i</text></g><g transform="matrix(0.992998,0.118135,-0.115476,0.993314,11.1404,-7.64846)"><text x="69.963px" y="92.231px" style="font-family:'ModernAntiqua-Regular', 'Modern Antiqua', sans-serif;font-weight:500;font-size:6.221px;stroke:#000;stroke-width:0.04px;stroke-linejoin:round;stroke-miterlimit:1.41421;">a</text></g></g></g></g></g></svg>