<?xml version="1.0" encoding="UTF-8" standalone="no"?><!DOCTYPE svg PUBLIC "-//W3C//DTD SVG 1.1//EN" "http://www.w3.org/Graphics/SVG/1.1/DTD/svg11.dtd"><svg width="100%" height="100%" viewBox="0 0 765 476" version="1.1" xmlns="http://www.w3.org/2000/svg" xmlns:xlink="http://www.w3.org/1999/xlink" xml:space="preserve" xmlns:serif="http://www.serif.com/" style="fill-rule:evenodd;clip-rule:evenodd;stroke-linecap:round;stroke-linejoin:round;stroke-miterlimit:1.5;"><g><g><g><rect x="614.002" y="265.014" width="105.478" height="64.656" style="stroke:#000;stroke-width:1.48px;"/><path d="M687.431,284.632c-9.599,-0.56 -21.657,2.449 -25.867,8.439c-36.37,51.746 -29.038,85.83 -13.162,102.039c4.057,4.093 9.383,6.685 15.106,7.353c8.272,0.995 17.317,0.966 24.197,-0.873l-0.274,-116.958Z" style="stroke:#000;stroke-width:1.48px;"/><ellipse cx="687.431" cy="343.138" rx="29.863" ry="58.506" style="stroke:#000;stroke-width:1.48px;"/><ellipse cx="689.777" cy="345.344" rx="19.31" ry="36.945" style="fill:#7d7d7d;fill-opacity:0.596078;stroke:#020033;stroke-width:1.92px;"/></g></g><g><g><rect x="291.35" y="307.832" width="140.845" height="96.858" style="stroke:#000;stroke-width:1.48px;"/><path d="M379.906,331.492c-11.576,-0.676 -26.118,2.953 -31.195,10.177c-45.689,65.005 -34.193,106.898 -13.431,125.39c3.763,3.377 8.447,5.556 13.455,6.257c10.577,1.474 22.557,1.619 31.502,-0.771l-0.331,-141.053Z" style="stroke:#000;stroke-width:1.48px;"/><ellipse cx="379.906" cy="402.051" rx="36.015" ry="70.559" style="stroke:#000;stroke-width:1.48px;"/><ellipse cx="382.737" cy="404.711" rx="23.288" ry="44.557" style="fill:#4b4b4b;fill-opacity:0.560784;stroke:#020033;stroke-width:1.92px;"/></g></g><path d="M97.673,150.072c-1.864,-6.598 -20.411,-0.96 -21.352,3.975c-2.915,8.918 -3.747,20.822 -4.182,33.297c-0.036,1.035 26.375,-34.294 25.534,-37.272Z"/><path d="M203.664,16.434c92.478,-15.557 185.029,-18.842 277.658,-9.412c0,0 213.358,21.608 252.609,25.583c3.767,0.381 6.951,2.957 8.111,6.561c29.779,93.426 23.95,187.5 9.879,278.457l-32.122,11.765c0.779,-62.751 -37.302,-64.273 -44.035,-23.814c-1.813,10.895 -4.999,23.832 -8.553,39.109l-241.186,60.002c20.978,-133.129 -92.575,-113.983 -96.474,22.354l-34.119,6.529c-112.946,3.885 -198.241,-10.571 -282.364,-31.236l-11.412,-25.354c-0.212,-46.65 4.279,-83.909 24.354,-102.886c5.666,-31.018 20.616,-51.971 38.88,-75.994c40.038,-52.663 76.793,-120.423 138.774,-181.664Z" style="fill:#fff;stroke:#000;stroke-width:1.77px;"/><path d="M33.39,407.188l85.423,16.573c-14.777,29.391 -76.244,26.732 -85.423,-16.573Z"/><g><path d="M275.883,229.677c25.378,3.276 47.115,-2.215 64.134,-19.066c22.4,33.09 0.256,58.06 -53.734,68.467l-44.2,-0.867c8.2,-21.024 18.92,-38.066 33.8,-48.534Z" style="fill:#ffeb00;stroke:#000;stroke-width:1.77px;"/><path d="M54.016,211.477c2.036,4.587 5.254,8.602 11.267,11.267l-20.801,44.2c-7.047,-0.951 -11.18,-2.846 -15.272,-7.473c5.268,-17.13 12.674,-33.268 24.806,-47.994Z" style="fill:#becc00;stroke:#000;stroke-width:1.77px;"/></g><g><path d="M439.608,404.117c12.677,-111.218 -16.781,-149.254 -89.248,-112.591l-10.343,-7.248l-98.8,6.933l-19.067,16.467l-19.934,52.867l-175.067,-14.734l3.467,-52.867l13.866,-14.733l-19.066,-6.067c-18.935,11.347 -24.779,49.794 -24.267,101.401c1.339,11.711 7.522,23.414 14.006,30.389c139.703,36.871 272.315,44.661 314.602,22.981c4.375,-79.161 44.142,-122.815 72.176,-109.349c11.114,5.339 20.384,19.656 24.874,44.298c0.38,2.088 -1.249,35.832 -0.383,41.79c0.36,2.47 6.16,0.776 9.949,-0.279c1.777,-0.495 3.112,-0.516 3.235,0.742c0.291,2.989 -0.204,-3.171 0,0Z" style="fill:#7d7d7d;stroke:#000;stroke-width:2.08px;"/><path d="M452.684,343.211l208.966,-39.205l-5.781,27.819l-205.785,46.053l-1.019,-34.184" style="fill:#7d7d7d;stroke:#000;stroke-width:2.08px;"/><path d="M710.543,287.021c-18.601,-22.859 -32.462,2.818 -42.934,57.312l-10.615,2.568c18.007,-69.797 21.701,-110.473 56.89,-86.249l46.664,-6.822c-2.705,21.104 -5.485,42.86 -8.34,64.173l-32.956,11.949c1.586,-11.372 -1.698,-31.28 -8.709,-42.931Z" style="fill:#7d7d7d;stroke:#000;stroke-width:2.08px;"/></g><g><path d="M151.688,76.467c121.418,-1.142 244.746,-3.363 265.233,6.743l-66.561,112.667c-18.53,17.451 -39.218,21.898 -60.61,22.1l-200.201,-9.966c-14.482,-2.961 -22.381,-7.984 -16.466,-17.334l78.605,-114.21Z" style="fill:#09c2ff;stroke:#000;stroke-width:2.37px;"/><path d="M380.829,227.017c-1.298,-0.192 -2.464,-0.899 -3.234,-1.962c-0.77,-1.064 -1.078,-2.392 -0.854,-3.686c9.734,-55.825 28.807,-116.036 68.543,-137.743c13.187,-2.759 23.312,-1.832 33.166,-0.579c2.578,0.323 4.544,2.462 4.65,5.058c1.206,30.463 0.414,60.913 -3.04,91.302c-0.649,18.588 -10.906,31.649 -22.474,46.272c-1.201,1.522 -3.008,2.443 -4.945,2.521c-23.505,0.957 -48.803,2.009 -71.812,-1.183Z" style="fill:#09c2ff;stroke:#020033;stroke-width:2.37px;"/></g><path d="M41.016,346.678l1.733,-38.134c0.343,-5.654 2.946,-8.024 10.4,-6.933l131.734,8.634c9.845,-0.68 16.031,1.366 12.133,12.166l-9.746,35.045c-28.299,-1.338 -54.329,-1.237 -80.387,-2.978c-22.775,-1.522 -44.649,-4.736 -65.867,-7.8Z" style="fill:#00ee39;fill-opacity:0.427451;stroke:#000;stroke-width:1px;"/></g></svg>